<svg width="160" height="49" viewBox="0 0 160 49" fill="none" xmlns="http://www.w3.org/2000/svg">
<path d="M53.5176 19.3154H57.4346C58.5785 19.3154 59.5719 19.4385 60.415 19.6846C61.2581 19.9307 61.9554 20.2839 62.5068 20.7441C63.0628 21.1999 63.4753 21.7559 63.7441 22.4121C64.0176 23.0638 64.1543 23.7975 64.1543 24.6133C64.1543 25.388 64.0199 26.1058 63.751 26.7666C63.4821 27.4229 63.0719 27.9925 62.5205 28.4756C61.9691 28.9541 61.2718 29.3301 60.4287 29.6035C59.5856 29.8724 58.5921 30.0068 57.4482 30.0068L53.5176 30V19.3154ZM57.9678 28.127C58.6149 28.127 59.1823 28.0449 59.6699 27.8809C60.1576 27.7122 60.5632 27.4753 60.8867 27.1699C61.2148 26.8646 61.4609 26.4954 61.625 26.0625C61.7891 25.6296 61.8711 25.1465 61.8711 24.6133C61.8711 24.0892 61.7891 23.6175 61.625 23.1982C61.4609 22.7744 61.2148 22.4167 60.8867 22.125C60.5632 21.8288 60.1576 21.6009 59.6699 21.4414C59.1823 21.2819 58.6149 21.2021 57.9678 21.2021H55.6846V28.127H57.9678ZM65.6992 24.627C65.6992 23.8203 65.8473 23.082 66.1436 22.4121C66.4398 21.7422 66.8545 21.168 67.3877 20.6895C67.9255 20.2064 68.568 19.8327 69.3154 19.5684C70.0674 19.304 70.8991 19.1719 71.8105 19.1719C72.7174 19.1719 73.5469 19.304 74.2988 19.5684C75.0508 19.8327 75.6934 20.2064 76.2266 20.6895C76.7643 21.168 77.1813 21.7422 77.4775 22.4121C77.7738 23.082 77.9219 23.8203 77.9219 24.627C77.9219 25.4382 77.7738 26.1833 77.4775 26.8623C77.1813 27.5368 76.7643 28.1178 76.2266 28.6055C75.6934 29.0931 75.0508 29.4736 74.2988 29.7471C73.5469 30.016 72.7174 30.1504 71.8105 30.1504C70.8991 30.1504 70.0674 30.016 69.3154 29.7471C68.568 29.4736 67.9255 29.0931 67.3877 28.6055C66.8545 28.1178 66.4398 27.5368 66.1436 26.8623C65.8473 26.1833 65.6992 25.4382 65.6992 24.627ZM67.8662 24.627C67.8662 25.1784 67.9642 25.6751 68.1602 26.1172C68.3607 26.5592 68.6364 26.9375 68.9873 27.252C69.3428 27.5618 69.7598 27.8011 70.2383 27.9697C70.7214 28.1383 71.2454 28.2227 71.8105 28.2227C72.3757 28.2227 72.8975 28.1383 73.376 27.9697C73.859 27.8011 74.276 27.5618 74.627 27.252C74.9779 26.9375 75.2536 26.5592 75.4541 26.1172C75.6546 25.6751 75.7549 25.1784 75.7549 24.627C75.7549 24.0755 75.6546 23.5811 75.4541 23.1436C75.2536 22.7061 74.9779 22.3369 74.627 22.0361C74.276 21.7308 73.859 21.4984 73.376 21.3389C72.8975 21.1794 72.3757 21.0996 71.8105 21.0996C71.2454 21.0996 70.7214 21.1794 70.2383 21.3389C69.7598 21.4984 69.3428 21.7308 68.9873 22.0361C68.6364 22.3369 68.3607 22.7061 68.1602 23.1436C67.9642 23.5811 67.8662 24.0755 67.8662 24.627ZM79.6787 24.5928C79.6787 23.8317 79.8223 23.123 80.1094 22.4668C80.3965 21.806 80.8112 21.234 81.3535 20.751C81.9004 20.2633 82.5658 19.8805 83.3496 19.6025C84.138 19.3245 85.029 19.1855 86.0225 19.1855C86.8929 19.1855 87.6904 19.2744 88.415 19.4521C89.1442 19.6253 89.821 19.8919 90.4453 20.252L89.4473 21.8926C89.2604 21.7695 89.0439 21.6602 88.7979 21.5645C88.5563 21.4688 88.2965 21.389 88.0186 21.3252C87.7451 21.2568 87.4603 21.2044 87.1641 21.168C86.8724 21.1315 86.583 21.1133 86.2959 21.1133C85.6032 21.1133 84.9857 21.1999 84.4434 21.373C83.901 21.5417 83.443 21.7809 83.0693 22.0908C82.7002 22.3962 82.4176 22.763 82.2217 23.1914C82.0303 23.6152 81.9346 24.0824 81.9346 24.5928C81.9346 25.1214 82.0348 25.6068 82.2354 26.0488C82.4359 26.4909 82.7253 26.8737 83.1035 27.1973C83.4863 27.5163 83.9512 27.7669 84.498 27.9492C85.0495 28.127 85.6715 28.2158 86.3643 28.2158C86.6787 28.2158 86.9909 28.193 87.3008 28.1475C87.6107 28.1019 87.9092 28.0404 88.1963 27.9629C88.488 27.8809 88.7682 27.7852 89.0371 27.6758C89.306 27.5618 89.5566 27.4388 89.7891 27.3066L90.7871 28.9473C90.2038 29.321 89.5293 29.6149 88.7637 29.8291C87.998 30.0387 87.1846 30.1436 86.3232 30.1436C85.2249 30.1436 84.2611 30.0023 83.4316 29.7197C82.6022 29.4326 81.9095 29.0407 81.3535 28.5439C80.7975 28.0426 80.3783 27.4548 80.0957 26.7803C79.8177 26.1012 79.6787 25.3721 79.6787 24.5928Z" fill="#040404"/>
<path d="M93.1797 19.3154H97.0967C98.2406 19.3154 99.234 19.4385 100.077 19.6846C100.92 19.9307 101.618 20.2839 102.169 20.7441C102.725 21.1999 103.137 21.7559 103.406 22.4121C103.68 23.0638 103.816 23.7975 103.816 24.6133C103.816 25.388 103.682 26.1058 103.413 26.7666C103.144 27.4229 102.734 27.9925 102.183 28.4756C101.631 28.9541 100.934 29.3301 100.091 29.6035C99.2477 29.8724 98.2542 30.0068 97.1104 30.0068L93.1797 30V19.3154ZM97.6299 28.127C98.277 28.127 98.8444 28.0449 99.332 27.8809C99.8197 27.7122 100.225 27.4753 100.549 27.1699C100.877 26.8646 101.123 26.4954 101.287 26.0625C101.451 25.6296 101.533 25.1465 101.533 24.6133C101.533 24.0892 101.451 23.6175 101.287 23.1982C101.123 22.7744 100.877 22.4167 100.549 22.125C100.225 21.8288 99.8197 21.6009 99.332 21.4414C98.8444 21.2819 98.277 21.2021 97.6299 21.2021H95.3467V28.127H97.6299ZM109.634 19.3154H111.931L117.099 30H114.822L113.968 28.2021H107.727L106.899 30H104.616L109.634 19.3154ZM113.113 26.418L110.803 21.5645L108.554 26.418H113.113ZM119.259 26.8213C119.646 27.04 120.038 27.2383 120.435 27.416C120.836 27.5892 121.25 27.7373 121.679 27.8604C122.107 27.9788 122.556 28.07 123.025 28.1338C123.499 28.1976 124.003 28.2295 124.536 28.2295C125.179 28.2295 125.726 28.1885 126.177 28.1064C126.628 28.0199 126.995 27.9036 127.277 27.7578C127.564 27.6074 127.772 27.4297 127.899 27.2246C128.032 27.0195 128.098 26.7962 128.098 26.5547C128.098 26.1673 127.936 25.862 127.612 25.6387C127.289 25.4108 126.79 25.2969 126.115 25.2969C125.819 25.2969 125.507 25.3174 125.179 25.3584C124.851 25.3949 124.518 25.4359 124.181 25.4814C123.848 25.527 123.518 25.5703 123.189 25.6113C122.866 25.6478 122.561 25.666 122.273 25.666C121.795 25.666 121.335 25.6045 120.893 25.4814C120.455 25.3584 120.065 25.1738 119.724 24.9277C119.386 24.6816 119.118 24.374 118.917 24.0049C118.716 23.6357 118.616 23.2051 118.616 22.7129C118.616 22.4212 118.655 22.1318 118.732 21.8447C118.814 21.5576 118.942 21.2842 119.115 21.0244C119.293 20.7601 119.521 20.5163 119.799 20.293C120.077 20.0651 120.412 19.8691 120.804 19.7051C121.2 19.541 121.656 19.4134 122.171 19.3223C122.69 19.2266 123.281 19.1787 123.941 19.1787C124.42 19.1787 124.901 19.2061 125.384 19.2607C125.867 19.3109 126.336 19.3838 126.792 19.4795C127.252 19.5752 127.694 19.6914 128.118 19.8281C128.542 19.9603 128.936 20.1084 129.301 20.2725L128.351 22.0225C128.05 21.8903 127.726 21.7695 127.38 21.6602C127.034 21.5462 126.671 21.4482 126.293 21.3662C125.915 21.2842 125.523 21.2204 125.117 21.1748C124.716 21.1247 124.306 21.0996 123.887 21.0996C123.29 21.0996 122.798 21.1429 122.41 21.2295C122.027 21.3161 121.722 21.4277 121.494 21.5645C121.266 21.6966 121.107 21.847 121.016 22.0156C120.929 22.1797 120.886 22.3438 120.886 22.5078C120.886 22.8268 121.029 23.0889 121.316 23.2939C121.604 23.4945 122.041 23.5947 122.629 23.5947C122.866 23.5947 123.137 23.5788 123.442 23.5469C123.752 23.5104 124.076 23.4717 124.413 23.4307C124.755 23.3896 125.101 23.3532 125.452 23.3213C125.808 23.2848 126.152 23.2666 126.484 23.2666C127.113 23.2666 127.669 23.3372 128.152 23.4785C128.64 23.6198 129.048 23.8226 129.376 24.0869C129.704 24.3467 129.952 24.6634 130.121 25.0371C130.29 25.4062 130.374 25.821 130.374 26.2812C130.374 26.8965 130.23 27.4456 129.943 27.9287C129.661 28.4072 129.255 28.8128 128.727 29.1455C128.202 29.4736 127.569 29.7243 126.826 29.8975C126.083 30.0661 125.256 30.1504 124.345 30.1504C123.743 30.1504 123.155 30.1117 122.581 30.0342C122.007 29.9613 121.455 29.8564 120.927 29.7197C120.403 29.5785 119.901 29.4121 119.423 29.2207C118.949 29.0247 118.509 28.8105 118.104 28.5781L119.259 26.8213ZM132.753 19.3154H134.92V22.1045H141.564V19.3154H143.738V30H141.564V23.957H134.92V30H132.753V19.3154Z" fill="#FF0000"/>
<path d="M44.8884 23.6191C45.492 21.9149 45.8333 20.1579 45.8333 18.375C45.8333 12.1733 40.7032 7.14581 34.375 7.14581C30.4997 7.14581 27.0736 9.03119 25 11.917C22.9263 9.03119 19.5003 7.14581 15.625 7.14581C9.29673 7.14581 4.16666 12.1733 4.16666 18.375C4.16666 29.6041 17.7083 39.8125 25 42.1871C26.8013 41.6005 28.9841 40.5357 31.25 39.0956M23.9583 25.5208H29.1667L33.3333 33.6875L37.5 21.4375L41.6667 29.6041H46.875" stroke="#FF0000" stroke-width="1.5" stroke-linecap="round" stroke-linejoin="round"/>
</svg>
