<svg width="166" height="54" viewBox="0 0 166 54" fill="none" xmlns="http://www.w3.org/2000/svg">
<path d="M35.0416 21.375C32.6245 24.75 30.2085 30.375 30.2085 38.25M35.0416 21.375C32.625 24.75 31.4167 29.25 20.5417 29.25M35.0416 21.375C38.0973 17.5818 42.8701 14.5879 47.9127 13.741C49.3823 13.4942 50.5265 12.2515 50.281 10.8801L49.8782 8.6301C49.684 7.54518 48.6741 6.73768 47.501 6.86737C41.7101 7.50755 34.5181 10.7343 30.2083 15.75C30.2083 13.5 30.2083 6.75 29 3.375M19.3333 14.625C18.125 11.25 15.7083 9 12.0833 9M10.8751 31.4936C13.2916 41.6186 22.5567 49.4583 28.9998 49.4583C35.4429 49.4583 44.307 41.6193 47.1252 31.4936C49.9434 21.3679 41.0835 14.6186 35.0418 21.3686C35.0418 18.0013 31.4168 14.6252 24.1668 14.6252C16.9168 14.6252 8.45859 21.3686 10.8751 31.4936Z" stroke="#FF1115" stroke-width="1.5" stroke-linecap="round" stroke-linejoin="round"/>
<path d="M59.5176 22.3154H63.4346C64.5785 22.3154 65.5719 22.4385 66.415 22.6846C67.2581 22.9307 67.9554 23.2839 68.5068 23.7441C69.0628 24.1999 69.4753 24.7559 69.7441 25.4121C70.0176 26.0638 70.1543 26.7975 70.1543 27.6133C70.1543 28.388 70.0199 29.1058 69.751 29.7666C69.4821 30.4229 69.0719 30.9925 68.5205 31.4756C67.9691 31.9541 67.2718 32.3301 66.4287 32.6035C65.5856 32.8724 64.5921 33.0068 63.4482 33.0068L59.5176 33V22.3154ZM63.9678 31.127C64.6149 31.127 65.1823 31.0449 65.6699 30.8809C66.1576 30.7122 66.5632 30.4753 66.8867 30.1699C67.2148 29.8646 67.4609 29.4954 67.625 29.0625C67.7891 28.6296 67.8711 28.1465 67.8711 27.6133C67.8711 27.0892 67.7891 26.6175 67.625 26.1982C67.4609 25.7744 67.2148 25.4167 66.8867 25.125C66.5632 24.8288 66.1576 24.6009 65.6699 24.4414C65.1823 24.2819 64.6149 24.2021 63.9678 24.2021H61.6846V31.127H63.9678ZM71.6992 27.627C71.6992 26.8203 71.8473 26.082 72.1436 25.4121C72.4398 24.7422 72.8545 24.168 73.3877 23.6895C73.9255 23.2064 74.568 22.8327 75.3154 22.5684C76.0674 22.304 76.8991 22.1719 77.8105 22.1719C78.7174 22.1719 79.5469 22.304 80.2988 22.5684C81.0508 22.8327 81.6934 23.2064 82.2266 23.6895C82.7643 24.168 83.1813 24.7422 83.4775 25.4121C83.7738 26.082 83.9219 26.8203 83.9219 27.627C83.9219 28.4382 83.7738 29.1833 83.4775 29.8623C83.1813 30.5368 82.7643 31.1178 82.2266 31.6055C81.6934 32.0931 81.0508 32.4736 80.2988 32.7471C79.5469 33.016 78.7174 33.1504 77.8105 33.1504C76.8991 33.1504 76.0674 33.016 75.3154 32.7471C74.568 32.4736 73.9255 32.0931 73.3877 31.6055C72.8545 31.1178 72.4398 30.5368 72.1436 29.8623C71.8473 29.1833 71.6992 28.4382 71.6992 27.627ZM73.8662 27.627C73.8662 28.1784 73.9642 28.6751 74.1602 29.1172C74.3607 29.5592 74.6364 29.9375 74.9873 30.252C75.3428 30.5618 75.7598 30.8011 76.2383 30.9697C76.7214 31.1383 77.2454 31.2227 77.8105 31.2227C78.3757 31.2227 78.8975 31.1383 79.376 30.9697C79.859 30.8011 80.276 30.5618 80.627 30.252C80.9779 29.9375 81.2536 29.5592 81.4541 29.1172C81.6546 28.6751 81.7549 28.1784 81.7549 27.627C81.7549 27.0755 81.6546 26.5811 81.4541 26.1436C81.2536 25.7061 80.9779 25.3369 80.627 25.0361C80.276 24.7308 79.859 24.4984 79.376 24.3389C78.8975 24.1794 78.3757 24.0996 77.8105 24.0996C77.2454 24.0996 76.7214 24.1794 76.2383 24.3389C75.7598 24.4984 75.3428 24.7308 74.9873 25.0361C74.6364 25.3369 74.3607 25.7061 74.1602 26.1436C73.9642 26.5811 73.8662 27.0755 73.8662 27.627ZM85.6787 27.5928C85.6787 26.8317 85.8223 26.123 86.1094 25.4668C86.3965 24.806 86.8112 24.234 87.3535 23.751C87.9004 23.2633 88.5658 22.8805 89.3496 22.6025C90.138 22.3245 91.029 22.1855 92.0225 22.1855C92.8929 22.1855 93.6904 22.2744 94.415 22.4521C95.1442 22.6253 95.821 22.8919 96.4453 23.252L95.4473 24.8926C95.2604 24.7695 95.0439 24.6602 94.7979 24.5645C94.5563 24.4688 94.2965 24.389 94.0186 24.3252C93.7451 24.2568 93.4603 24.2044 93.1641 24.168C92.8724 24.1315 92.583 24.1133 92.2959 24.1133C91.6032 24.1133 90.9857 24.1999 90.4434 24.373C89.901 24.5417 89.443 24.7809 89.0693 25.0908C88.7002 25.3962 88.4176 25.763 88.2217 26.1914C88.0303 26.6152 87.9346 27.0824 87.9346 27.5928C87.9346 28.1214 88.0348 28.6068 88.2354 29.0488C88.4359 29.4909 88.7253 29.8737 89.1035 30.1973C89.4863 30.5163 89.9512 30.7669 90.498 30.9492C91.0495 31.127 91.6715 31.2158 92.3643 31.2158C92.6787 31.2158 92.9909 31.193 93.3008 31.1475C93.6107 31.1019 93.9092 31.0404 94.1963 30.9629C94.488 30.8809 94.7682 30.7852 95.0371 30.6758C95.306 30.5618 95.5566 30.4388 95.7891 30.3066L96.7871 31.9473C96.2038 32.321 95.5293 32.6149 94.7637 32.8291C93.998 33.0387 93.1846 33.1436 92.3232 33.1436C91.2249 33.1436 90.2611 33.0023 89.4316 32.7197C88.6022 32.4326 87.9095 32.0407 87.3535 31.5439C86.7975 31.0426 86.3783 30.4548 86.0957 29.7803C85.8177 29.1012 85.6787 28.3721 85.6787 27.5928ZM99.1797 22.3154H103.097C104.241 22.3154 105.234 22.4385 106.077 22.6846C106.92 22.9307 107.618 23.2839 108.169 23.7441C108.725 24.1999 109.137 24.7559 109.406 25.4121C109.68 26.0638 109.816 26.7975 109.816 27.6133C109.816 28.388 109.682 29.1058 109.413 29.7666C109.144 30.4229 108.734 30.9925 108.183 31.4756C107.631 31.9541 106.934 32.3301 106.091 32.6035C105.248 32.8724 104.254 33.0068 103.11 33.0068L99.1797 33V22.3154ZM103.63 31.127C104.277 31.127 104.844 31.0449 105.332 30.8809C105.82 30.7122 106.225 30.4753 106.549 30.1699C106.877 29.8646 107.123 29.4954 107.287 29.0625C107.451 28.6296 107.533 28.1465 107.533 27.6133C107.533 27.0892 107.451 26.6175 107.287 26.1982C107.123 25.7744 106.877 25.4167 106.549 25.125C106.225 24.8288 105.82 24.6009 105.332 24.4414C104.844 24.2819 104.277 24.2021 103.63 24.2021H101.347V31.127H103.63ZM115.634 22.3154H117.931L123.099 33H120.822L119.968 31.2021H113.727L112.899 33H110.616L115.634 22.3154ZM119.113 29.418L116.803 24.5645L114.554 29.418H119.113ZM125.259 29.8213C125.646 30.04 126.038 30.2383 126.435 30.416C126.836 30.5892 127.25 30.7373 127.679 30.8604C128.107 30.9788 128.556 31.07 129.025 31.1338C129.499 31.1976 130.003 31.2295 130.536 31.2295C131.179 31.2295 131.726 31.1885 132.177 31.1064C132.628 31.0199 132.995 30.9036 133.277 30.7578C133.564 30.6074 133.772 30.4297 133.899 30.2246C134.032 30.0195 134.098 29.7962 134.098 29.5547C134.098 29.1673 133.936 28.862 133.612 28.6387C133.289 28.4108 132.79 28.2969 132.115 28.2969C131.819 28.2969 131.507 28.3174 131.179 28.3584C130.851 28.3949 130.518 28.4359 130.181 28.4814C129.848 28.527 129.518 28.5703 129.189 28.6113C128.866 28.6478 128.561 28.666 128.273 28.666C127.795 28.666 127.335 28.6045 126.893 28.4814C126.455 28.3584 126.065 28.1738 125.724 27.9277C125.386 27.6816 125.118 27.374 124.917 27.0049C124.716 26.6357 124.616 26.2051 124.616 25.7129C124.616 25.4212 124.655 25.1318 124.732 24.8447C124.814 24.5576 124.942 24.2842 125.115 24.0244C125.293 23.7601 125.521 23.5163 125.799 23.293C126.077 23.0651 126.412 22.8691 126.804 22.7051C127.2 22.541 127.656 22.4134 128.171 22.3223C128.69 22.2266 129.281 22.1787 129.941 22.1787C130.42 22.1787 130.901 22.2061 131.384 22.2607C131.867 22.3109 132.336 22.3838 132.792 22.4795C133.252 22.5752 133.694 22.6914 134.118 22.8281C134.542 22.9603 134.936 23.1084 135.301 23.2725L134.351 25.0225C134.05 24.8903 133.726 24.7695 133.38 24.6602C133.034 24.5462 132.671 24.4482 132.293 24.3662C131.915 24.2842 131.523 24.2204 131.117 24.1748C130.716 24.1247 130.306 24.0996 129.887 24.0996C129.29 24.0996 128.798 24.1429 128.41 24.2295C128.027 24.3161 127.722 24.4277 127.494 24.5645C127.266 24.6966 127.107 24.847 127.016 25.0156C126.929 25.1797 126.886 25.3438 126.886 25.5078C126.886 25.8268 127.029 26.0889 127.316 26.2939C127.604 26.4945 128.041 26.5947 128.629 26.5947C128.866 26.5947 129.137 26.5788 129.442 26.5469C129.752 26.5104 130.076 26.4717 130.413 26.4307C130.755 26.3896 131.101 26.3532 131.452 26.3213C131.808 26.2848 132.152 26.2666 132.484 26.2666C133.113 26.2666 133.669 26.3372 134.152 26.4785C134.64 26.6198 135.048 26.8226 135.376 27.0869C135.704 27.3467 135.952 27.6634 136.121 28.0371C136.29 28.4062 136.374 28.821 136.374 29.2812C136.374 29.8965 136.23 30.4456 135.943 30.9287C135.661 31.4072 135.255 31.8128 134.727 32.1455C134.202 32.4736 133.569 32.7243 132.826 32.8975C132.083 33.0661 131.256 33.1504 130.345 33.1504C129.743 33.1504 129.155 33.1117 128.581 33.0342C128.007 32.9613 127.455 32.8564 126.927 32.7197C126.403 32.5785 125.901 32.4121 125.423 32.2207C124.949 32.0247 124.509 31.8105 124.104 31.5781L125.259 29.8213ZM138.753 22.3154H140.92V25.1045H147.564V22.3154H149.738V33H147.564V26.957H140.92V33H138.753V22.3154Z" fill="#040404"/>
</svg>
